<mxfile host="app.diagrams.net" modified="2023-10-23T11:43:45.506Z" agent="Mozilla/5.0 (Windows NT 10.0; Win64; x64) AppleWebKit/537.36 (KHTML, like Gecko) Chrome/118.0.0.0 Safari/537.36" etag="MyBEYhW3NFISD78rZONw" version="22.0.6" type="device">
  <diagram name="Page-1" id="2Psosl3usSGLXp_8EubP">
    <mxGraphModel dx="2739" dy="2169" grid="1" gridSize="10" guides="1" tooltips="1" connect="1" arrows="1" fold="1" page="1" pageScale="1" pageWidth="827" pageHeight="1169" math="0" shadow="0">
      <root>
        <mxCell id="0" />
        <mxCell id="1" parent="0" />
        <mxCell id="bw-IX-_6H2uLO_dws2v9-1" value="Organizer" style="swimlane;fontStyle=0;childLayout=stackLayout;horizontal=1;startSize=30;horizontalStack=0;resizeParent=1;resizeParentMax=0;resizeLast=0;collapsible=1;marginBottom=0;whiteSpace=wrap;html=1;" parent="1" vertex="1">
          <mxGeometry x="-230" y="160" width="140" height="270" as="geometry">
            <mxRectangle x="40" y="160" width="90" height="30" as="alternateBounds" />
          </mxGeometry>
        </mxCell>
        <mxCell id="1MxPp7PBHnicv2gRr7QU-12" value="name" style="text;strokeColor=none;fillColor=none;align=left;verticalAlign=middle;spacingLeft=4;spacingRight=4;overflow=hidden;points=[[0,0.5],[1,0.5]];portConstraint=eastwest;rotatable=0;whiteSpace=wrap;html=1;" parent="bw-IX-_6H2uLO_dws2v9-1" vertex="1">
          <mxGeometry y="30" width="140" height="30" as="geometry" />
        </mxCell>
        <mxCell id="bw-IX-_6H2uLO_dws2v9-18" value="location" style="text;strokeColor=none;fillColor=none;align=left;verticalAlign=middle;spacingLeft=4;spacingRight=4;overflow=hidden;points=[[0,0.5],[1,0.5]];portConstraint=eastwest;rotatable=0;whiteSpace=wrap;html=1;" parent="bw-IX-_6H2uLO_dws2v9-1" vertex="1">
          <mxGeometry y="60" width="140" height="30" as="geometry" />
        </mxCell>
        <mxCell id="bw-IX-_6H2uLO_dws2v9-19" value="county" style="text;strokeColor=none;fillColor=none;align=left;verticalAlign=middle;spacingLeft=4;spacingRight=4;overflow=hidden;points=[[0,0.5],[1,0.5]];portConstraint=eastwest;rotatable=0;whiteSpace=wrap;html=1;" parent="bw-IX-_6H2uLO_dws2v9-1" vertex="1">
          <mxGeometry y="90" width="140" height="30" as="geometry" />
        </mxCell>
        <mxCell id="bw-IX-_6H2uLO_dws2v9-22" value="picture" style="text;strokeColor=none;fillColor=none;align=left;verticalAlign=middle;spacingLeft=4;spacingRight=4;overflow=hidden;points=[[0,0.5],[1,0.5]];portConstraint=eastwest;rotatable=0;whiteSpace=wrap;html=1;" parent="bw-IX-_6H2uLO_dws2v9-1" vertex="1">
          <mxGeometry y="120" width="140" height="30" as="geometry" />
        </mxCell>
        <mxCell id="bw-IX-_6H2uLO_dws2v9-32" value="created_at" style="text;strokeColor=none;fillColor=none;align=left;verticalAlign=middle;spacingLeft=4;spacingRight=4;overflow=hidden;points=[[0,0.5],[1,0.5]];portConstraint=eastwest;rotatable=0;whiteSpace=wrap;html=1;" parent="bw-IX-_6H2uLO_dws2v9-1" vertex="1">
          <mxGeometry y="150" width="140" height="30" as="geometry" />
        </mxCell>
        <mxCell id="bw-IX-_6H2uLO_dws2v9-33" value="updated_at" style="text;strokeColor=none;fillColor=none;align=left;verticalAlign=middle;spacingLeft=4;spacingRight=4;overflow=hidden;points=[[0,0.5],[1,0.5]];portConstraint=eastwest;rotatable=0;whiteSpace=wrap;html=1;" parent="bw-IX-_6H2uLO_dws2v9-1" vertex="1">
          <mxGeometry y="180" width="140" height="30" as="geometry" />
        </mxCell>
        <mxCell id="unt-5pMyE67pVbtMl0ob-11" value="website" style="text;strokeColor=none;fillColor=none;align=left;verticalAlign=middle;spacingLeft=4;spacingRight=4;overflow=hidden;points=[[0,0.5],[1,0.5]];portConstraint=eastwest;rotatable=0;whiteSpace=wrap;html=1;" vertex="1" parent="bw-IX-_6H2uLO_dws2v9-1">
          <mxGeometry y="210" width="140" height="30" as="geometry" />
        </mxCell>
        <mxCell id="unt-5pMyE67pVbtMl0ob-12" value="description" style="text;strokeColor=none;fillColor=none;align=left;verticalAlign=middle;spacingLeft=4;spacingRight=4;overflow=hidden;points=[[0,0.5],[1,0.5]];portConstraint=eastwest;rotatable=0;whiteSpace=wrap;html=1;" vertex="1" parent="bw-IX-_6H2uLO_dws2v9-1">
          <mxGeometry y="240" width="140" height="30" as="geometry" />
        </mxCell>
        <mxCell id="bw-IX-_6H2uLO_dws2v9-5" value="Event" style="swimlane;fontStyle=0;childLayout=stackLayout;horizontal=1;startSize=30;horizontalStack=0;resizeParent=1;resizeParentMax=0;resizeLast=0;collapsible=1;marginBottom=0;whiteSpace=wrap;html=1;" parent="1" vertex="1">
          <mxGeometry x="390" y="100" width="140" height="300" as="geometry" />
        </mxCell>
        <mxCell id="bw-IX-_6H2uLO_dws2v9-6" value="title" style="text;strokeColor=none;fillColor=none;align=left;verticalAlign=middle;spacingLeft=4;spacingRight=4;overflow=hidden;points=[[0,0.5],[1,0.5]];portConstraint=eastwest;rotatable=0;whiteSpace=wrap;html=1;" parent="bw-IX-_6H2uLO_dws2v9-5" vertex="1">
          <mxGeometry y="30" width="140" height="30" as="geometry" />
        </mxCell>
        <mxCell id="bw-IX-_6H2uLO_dws2v9-7" value="content" style="text;strokeColor=none;fillColor=none;align=left;verticalAlign=middle;spacingLeft=4;spacingRight=4;overflow=hidden;points=[[0,0.5],[1,0.5]];portConstraint=eastwest;rotatable=0;whiteSpace=wrap;html=1;" parent="bw-IX-_6H2uLO_dws2v9-5" vertex="1">
          <mxGeometry y="60" width="140" height="30" as="geometry" />
        </mxCell>
        <mxCell id="bw-IX-_6H2uLO_dws2v9-8" value="date_start" style="text;strokeColor=none;fillColor=none;align=left;verticalAlign=middle;spacingLeft=4;spacingRight=4;overflow=hidden;points=[[0,0.5],[1,0.5]];portConstraint=eastwest;rotatable=0;whiteSpace=wrap;html=1;" parent="bw-IX-_6H2uLO_dws2v9-5" vertex="1">
          <mxGeometry y="90" width="140" height="30" as="geometry" />
        </mxCell>
        <mxCell id="1MxPp7PBHnicv2gRr7QU-67" value="date_end" style="text;strokeColor=none;fillColor=none;align=left;verticalAlign=middle;spacingLeft=4;spacingRight=4;overflow=hidden;points=[[0,0.5],[1,0.5]];portConstraint=eastwest;rotatable=0;whiteSpace=wrap;html=1;" parent="bw-IX-_6H2uLO_dws2v9-5" vertex="1">
          <mxGeometry y="120" width="140" height="30" as="geometry" />
        </mxCell>
        <mxCell id="bw-IX-_6H2uLO_dws2v9-23" value="picture" style="text;strokeColor=none;fillColor=none;align=left;verticalAlign=middle;spacingLeft=4;spacingRight=4;overflow=hidden;points=[[0,0.5],[1,0.5]];portConstraint=eastwest;rotatable=0;whiteSpace=wrap;html=1;" parent="bw-IX-_6H2uLO_dws2v9-5" vertex="1">
          <mxGeometry y="150" width="140" height="30" as="geometry" />
        </mxCell>
        <mxCell id="bw-IX-_6H2uLO_dws2v9-34" value="created_at" style="text;strokeColor=none;fillColor=none;align=left;verticalAlign=middle;spacingLeft=4;spacingRight=4;overflow=hidden;points=[[0,0.5],[1,0.5]];portConstraint=eastwest;rotatable=0;whiteSpace=wrap;html=1;" parent="bw-IX-_6H2uLO_dws2v9-5" vertex="1">
          <mxGeometry y="180" width="140" height="30" as="geometry" />
        </mxCell>
        <mxCell id="bw-IX-_6H2uLO_dws2v9-35" value="updated_at" style="text;strokeColor=none;fillColor=none;align=left;verticalAlign=middle;spacingLeft=4;spacingRight=4;overflow=hidden;points=[[0,0.5],[1,0.5]];portConstraint=eastwest;rotatable=0;whiteSpace=wrap;html=1;" parent="bw-IX-_6H2uLO_dws2v9-5" vertex="1">
          <mxGeometry y="210" width="140" height="30" as="geometry" />
        </mxCell>
        <mxCell id="unt-5pMyE67pVbtMl0ob-9" value="county" style="text;strokeColor=none;fillColor=none;align=left;verticalAlign=middle;spacingLeft=4;spacingRight=4;overflow=hidden;points=[[0,0.5],[1,0.5]];portConstraint=eastwest;rotatable=0;whiteSpace=wrap;html=1;" vertex="1" parent="bw-IX-_6H2uLO_dws2v9-5">
          <mxGeometry y="240" width="140" height="30" as="geometry" />
        </mxCell>
        <mxCell id="unt-5pMyE67pVbtMl0ob-10" value="location" style="text;strokeColor=none;fillColor=none;align=left;verticalAlign=middle;spacingLeft=4;spacingRight=4;overflow=hidden;points=[[0,0.5],[1,0.5]];portConstraint=eastwest;rotatable=0;whiteSpace=wrap;html=1;" vertex="1" parent="bw-IX-_6H2uLO_dws2v9-5">
          <mxGeometry y="270" width="140" height="30" as="geometry" />
        </mxCell>
        <mxCell id="bw-IX-_6H2uLO_dws2v9-9" value="CrÃ©er" style="ellipse;whiteSpace=wrap;html=1;" parent="1" vertex="1">
          <mxGeometry x="130" y="305" width="100" height="40" as="geometry" />
        </mxCell>
        <mxCell id="bw-IX-_6H2uLO_dws2v9-14" value="" style="endArrow=none;html=1;rounded=0;entryX=0;entryY=0.5;entryDx=0;entryDy=0;exitX=1;exitY=0.5;exitDx=0;exitDy=0;" parent="1" source="bw-IX-_6H2uLO_dws2v9-32" target="bw-IX-_6H2uLO_dws2v9-9" edge="1">
          <mxGeometry width="50" height="50" relative="1" as="geometry">
            <mxPoint x="-90" y="295" as="sourcePoint" />
            <mxPoint x="230" y="220" as="targetPoint" />
          </mxGeometry>
        </mxCell>
        <mxCell id="bw-IX-_6H2uLO_dws2v9-15" value="" style="endArrow=none;html=1;rounded=0;exitX=1;exitY=0.5;exitDx=0;exitDy=0;entryX=0;entryY=0.5;entryDx=0;entryDy=0;" parent="1" source="bw-IX-_6H2uLO_dws2v9-9" edge="1" target="bw-IX-_6H2uLO_dws2v9-35">
          <mxGeometry width="50" height="50" relative="1" as="geometry">
            <mxPoint x="350" y="219.5" as="sourcePoint" />
            <mxPoint x="390" y="220" as="targetPoint" />
          </mxGeometry>
        </mxCell>
        <mxCell id="bw-IX-_6H2uLO_dws2v9-16" value="0,N" style="text;html=1;strokeColor=none;fillColor=none;align=center;verticalAlign=middle;whiteSpace=wrap;rounded=0;" parent="1" vertex="1">
          <mxGeometry x="-100" y="300" width="60" height="30" as="geometry" />
        </mxCell>
        <mxCell id="bw-IX-_6H2uLO_dws2v9-17" value="1,1" style="text;html=1;strokeColor=none;fillColor=none;align=center;verticalAlign=middle;whiteSpace=wrap;rounded=0;" parent="1" vertex="1">
          <mxGeometry x="340" y="300" width="60" height="30" as="geometry" />
        </mxCell>
        <mxCell id="bw-IX-_6H2uLO_dws2v9-25" value="Tag" style="swimlane;fontStyle=0;childLayout=stackLayout;horizontal=1;startSize=30;horizontalStack=0;resizeParent=1;resizeParentMax=0;resizeLast=0;collapsible=1;marginBottom=0;whiteSpace=wrap;html=1;" parent="1" vertex="1">
          <mxGeometry x="390" y="520" width="140" height="60" as="geometry" />
        </mxCell>
        <mxCell id="bw-IX-_6H2uLO_dws2v9-26" value="name&lt;br&gt;" style="text;strokeColor=none;fillColor=none;align=left;verticalAlign=middle;spacingLeft=4;spacingRight=4;overflow=hidden;points=[[0,0.5],[1,0.5]];portConstraint=eastwest;rotatable=0;whiteSpace=wrap;html=1;" parent="bw-IX-_6H2uLO_dws2v9-25" vertex="1">
          <mxGeometry y="30" width="140" height="30" as="geometry" />
        </mxCell>
        <mxCell id="bw-IX-_6H2uLO_dws2v9-29" value="Avoir" style="ellipse;whiteSpace=wrap;html=1;align=center;" parent="1" vertex="1">
          <mxGeometry x="410" y="440" width="100" height="40" as="geometry" />
        </mxCell>
        <mxCell id="bw-IX-_6H2uLO_dws2v9-36" value="0,N" style="text;html=1;strokeColor=none;fillColor=none;align=center;verticalAlign=middle;whiteSpace=wrap;rounded=0;" parent="1" vertex="1">
          <mxGeometry x="414" y="400" width="60" height="30" as="geometry" />
        </mxCell>
        <mxCell id="bw-IX-_6H2uLO_dws2v9-37" value="0,N" style="text;html=1;strokeColor=none;fillColor=none;align=center;verticalAlign=middle;whiteSpace=wrap;rounded=0;" parent="1" vertex="1">
          <mxGeometry x="414" y="490" width="60" height="30" as="geometry" />
        </mxCell>
        <mxCell id="bw-IX-_6H2uLO_dws2v9-38" value="event_tag" style="swimlane;fontStyle=0;childLayout=stackLayout;horizontal=1;startSize=30;horizontalStack=0;resizeParent=1;resizeParentMax=0;resizeLast=0;collapsible=1;marginBottom=0;whiteSpace=wrap;html=1;" parent="1" vertex="1">
          <mxGeometry x="610" y="400" width="140" height="90" as="geometry" />
        </mxCell>
        <mxCell id="bw-IX-_6H2uLO_dws2v9-39" value="event_id" style="text;strokeColor=none;fillColor=none;align=left;verticalAlign=middle;spacingLeft=4;spacingRight=4;overflow=hidden;points=[[0,0.5],[1,0.5]];portConstraint=eastwest;rotatable=0;whiteSpace=wrap;html=1;" parent="bw-IX-_6H2uLO_dws2v9-38" vertex="1">
          <mxGeometry y="30" width="140" height="30" as="geometry" />
        </mxCell>
        <mxCell id="bw-IX-_6H2uLO_dws2v9-40" value="tag_id" style="text;strokeColor=none;fillColor=none;align=left;verticalAlign=middle;spacingLeft=4;spacingRight=4;overflow=hidden;points=[[0,0.5],[1,0.5]];portConstraint=eastwest;rotatable=0;whiteSpace=wrap;html=1;" parent="bw-IX-_6H2uLO_dws2v9-38" vertex="1">
          <mxGeometry y="60" width="140" height="30" as="geometry" />
        </mxCell>
        <mxCell id="bw-IX-_6H2uLO_dws2v9-43" value="" style="endArrow=none;dashed=1;html=1;dashPattern=1 3;strokeWidth=2;rounded=0;" parent="1" edge="1">
          <mxGeometry width="50" height="50" relative="1" as="geometry">
            <mxPoint x="530" y="550" as="sourcePoint" />
            <mxPoint x="640" y="550" as="targetPoint" />
          </mxGeometry>
        </mxCell>
        <mxCell id="bw-IX-_6H2uLO_dws2v9-44" value="" style="endArrow=none;dashed=1;html=1;dashPattern=1 3;strokeWidth=2;rounded=0;" parent="1" edge="1">
          <mxGeometry width="50" height="50" relative="1" as="geometry">
            <mxPoint x="530" y="360" as="sourcePoint" />
            <mxPoint x="640" y="360" as="targetPoint" />
          </mxGeometry>
        </mxCell>
        <mxCell id="bw-IX-_6H2uLO_dws2v9-47" value="Table pivot&lt;br&gt;" style="shape=callout;whiteSpace=wrap;html=1;perimeter=calloutPerimeter;" parent="1" vertex="1">
          <mxGeometry x="680" y="330" width="90" height="60" as="geometry" />
        </mxCell>
        <mxCell id="Tn6UdyqkFmI2WBixfoAO-17" value="Artist" style="swimlane;fontStyle=0;childLayout=stackLayout;horizontal=1;startSize=30;horizontalStack=0;resizeParent=1;resizeParentMax=0;resizeLast=0;collapsible=1;marginBottom=0;whiteSpace=wrap;html=1;" parent="1" vertex="1">
          <mxGeometry x="390" y="-220" width="140" height="240" as="geometry" />
        </mxCell>
        <mxCell id="Tn6UdyqkFmI2WBixfoAO-18" value="stage_name" style="text;strokeColor=none;fillColor=none;align=left;verticalAlign=middle;spacingLeft=4;spacingRight=4;overflow=hidden;points=[[0,0.5],[1,0.5]];portConstraint=eastwest;rotatable=0;whiteSpace=wrap;html=1;" parent="Tn6UdyqkFmI2WBixfoAO-17" vertex="1">
          <mxGeometry y="30" width="140" height="30" as="geometry" />
        </mxCell>
        <mxCell id="Tn6UdyqkFmI2WBixfoAO-21" value="area" style="text;strokeColor=none;fillColor=none;align=left;verticalAlign=middle;spacingLeft=4;spacingRight=4;overflow=hidden;points=[[0,0.5],[1,0.5]];portConstraint=eastwest;rotatable=0;whiteSpace=wrap;html=1;" parent="Tn6UdyqkFmI2WBixfoAO-17" vertex="1">
          <mxGeometry y="60" width="140" height="30" as="geometry" />
        </mxCell>
        <mxCell id="Tn6UdyqkFmI2WBixfoAO-25" value="picture" style="text;strokeColor=none;fillColor=none;align=left;verticalAlign=middle;spacingLeft=4;spacingRight=4;overflow=hidden;points=[[0,0.5],[1,0.5]];portConstraint=eastwest;rotatable=0;whiteSpace=wrap;html=1;" parent="Tn6UdyqkFmI2WBixfoAO-17" vertex="1">
          <mxGeometry y="90" width="140" height="30" as="geometry" />
        </mxCell>
        <mxCell id="Tn6UdyqkFmI2WBixfoAO-28" value="sample" style="text;strokeColor=none;fillColor=none;align=left;verticalAlign=middle;spacingLeft=4;spacingRight=4;overflow=hidden;points=[[0,0.5],[1,0.5]];portConstraint=eastwest;rotatable=0;whiteSpace=wrap;html=1;" parent="Tn6UdyqkFmI2WBixfoAO-17" vertex="1">
          <mxGeometry y="120" width="140" height="30" as="geometry" />
        </mxCell>
        <mxCell id="1MxPp7PBHnicv2gRr7QU-29" value="created_at" style="text;strokeColor=none;fillColor=none;align=left;verticalAlign=middle;spacingLeft=4;spacingRight=4;overflow=hidden;points=[[0,0.5],[1,0.5]];portConstraint=eastwest;rotatable=0;whiteSpace=wrap;html=1;" parent="Tn6UdyqkFmI2WBixfoAO-17" vertex="1">
          <mxGeometry y="150" width="140" height="30" as="geometry" />
        </mxCell>
        <mxCell id="1MxPp7PBHnicv2gRr7QU-30" value="updated_at" style="text;strokeColor=none;fillColor=none;align=left;verticalAlign=middle;spacingLeft=4;spacingRight=4;overflow=hidden;points=[[0,0.5],[1,0.5]];portConstraint=eastwest;rotatable=0;whiteSpace=wrap;html=1;" parent="Tn6UdyqkFmI2WBixfoAO-17" vertex="1">
          <mxGeometry y="180" width="140" height="30" as="geometry" />
        </mxCell>
        <mxCell id="unt-5pMyE67pVbtMl0ob-8" value="description" style="text;strokeColor=none;fillColor=none;align=left;verticalAlign=middle;spacingLeft=4;spacingRight=4;overflow=hidden;points=[[0,0.5],[1,0.5]];portConstraint=eastwest;rotatable=0;whiteSpace=wrap;html=1;" vertex="1" parent="Tn6UdyqkFmI2WBixfoAO-17">
          <mxGeometry y="210" width="140" height="30" as="geometry" />
        </mxCell>
        <mxCell id="Tn6UdyqkFmI2WBixfoAO-30" value="Participer" style="ellipse;whiteSpace=wrap;html=1;align=center;" parent="1" vertex="1">
          <mxGeometry x="410" y="40" width="100" height="40" as="geometry" />
        </mxCell>
        <mxCell id="Tn6UdyqkFmI2WBixfoAO-31" value="" style="endArrow=none;html=1;rounded=0;entryX=0.5;entryY=1;entryDx=0;entryDy=0;exitX=0.5;exitY=0;exitDx=0;exitDy=0;" parent="1" source="bw-IX-_6H2uLO_dws2v9-5" target="Tn6UdyqkFmI2WBixfoAO-30" edge="1">
          <mxGeometry width="50" height="50" relative="1" as="geometry">
            <mxPoint x="460" y="160" as="sourcePoint" />
            <mxPoint x="510" y="110" as="targetPoint" />
          </mxGeometry>
        </mxCell>
        <mxCell id="Tn6UdyqkFmI2WBixfoAO-33" value="0,1" style="text;html=1;strokeColor=none;fillColor=none;align=center;verticalAlign=middle;whiteSpace=wrap;rounded=0;" parent="1" vertex="1">
          <mxGeometry x="450" y="80" width="60" height="30" as="geometry" />
        </mxCell>
        <mxCell id="Tn6UdyqkFmI2WBixfoAO-32" value="" style="endArrow=none;html=1;rounded=0;exitX=0.5;exitY=0;exitDx=0;exitDy=0;" parent="1" source="Tn6UdyqkFmI2WBixfoAO-30" edge="1">
          <mxGeometry width="50" height="50" relative="1" as="geometry">
            <mxPoint x="460" as="sourcePoint" />
            <mxPoint x="460" y="20" as="targetPoint" />
          </mxGeometry>
        </mxCell>
        <mxCell id="1MxPp7PBHnicv2gRr7QU-14" value="Role" style="swimlane;fontStyle=0;childLayout=stackLayout;horizontal=1;startSize=30;horizontalStack=0;resizeParent=1;resizeParentMax=0;resizeLast=0;collapsible=1;marginBottom=0;whiteSpace=wrap;html=1;" parent="1" vertex="1">
          <mxGeometry x="-230" y="-200" width="140" height="60" as="geometry" />
        </mxCell>
        <mxCell id="1MxPp7PBHnicv2gRr7QU-15" value="name" style="text;strokeColor=none;fillColor=none;align=left;verticalAlign=middle;spacingLeft=4;spacingRight=4;overflow=hidden;points=[[0,0.5],[1,0.5]];portConstraint=eastwest;rotatable=0;whiteSpace=wrap;html=1;" parent="1MxPp7PBHnicv2gRr7QU-14" vertex="1">
          <mxGeometry y="30" width="140" height="30" as="geometry" />
        </mxCell>
        <mxCell id="1MxPp7PBHnicv2gRr7QU-18" value="" style="endArrow=none;html=1;rounded=0;entryX=0;entryY=0.5;entryDx=0;entryDy=0;" parent="1" target="1MxPp7PBHnicv2gRr7QU-19" edge="1">
          <mxGeometry width="50" height="50" relative="1" as="geometry">
            <mxPoint x="-90" y="-180" as="sourcePoint" />
            <mxPoint x="-30" y="-180" as="targetPoint" />
          </mxGeometry>
        </mxCell>
        <mxCell id="1MxPp7PBHnicv2gRr7QU-19" value="Appartenir" style="ellipse;whiteSpace=wrap;html=1;align=center;" parent="1" vertex="1">
          <mxGeometry x="10" y="-200" width="100" height="40" as="geometry" />
        </mxCell>
        <mxCell id="1MxPp7PBHnicv2gRr7QU-20" value="Appartenir" style="ellipse;whiteSpace=wrap;html=1;align=center;" parent="1" vertex="1">
          <mxGeometry x="-220" y="-20" width="100" height="40" as="geometry" />
        </mxCell>
        <mxCell id="1MxPp7PBHnicv2gRr7QU-21" value="" style="endArrow=none;html=1;rounded=0;entryX=0.436;entryY=1;entryDx=0;entryDy=0;entryPerimeter=0;exitX=0.5;exitY=0;exitDx=0;exitDy=0;" parent="1" source="1MxPp7PBHnicv2gRr7QU-20" target="1MxPp7PBHnicv2gRr7QU-15" edge="1">
          <mxGeometry width="50" height="50" relative="1" as="geometry">
            <mxPoint x="100" y="-80" as="sourcePoint" />
            <mxPoint x="150" y="-130" as="targetPoint" />
          </mxGeometry>
        </mxCell>
        <mxCell id="1MxPp7PBHnicv2gRr7QU-22" value="" style="endArrow=none;html=1;rounded=0;exitX=1;exitY=0.5;exitDx=0;exitDy=0;" parent="1" source="1MxPp7PBHnicv2gRr7QU-19" edge="1">
          <mxGeometry width="50" height="50" relative="1" as="geometry">
            <mxPoint x="340" y="-180" as="sourcePoint" />
            <mxPoint x="390" y="-180" as="targetPoint" />
          </mxGeometry>
        </mxCell>
        <mxCell id="1MxPp7PBHnicv2gRr7QU-23" value="" style="endArrow=none;html=1;rounded=0;entryX=0.5;entryY=1;entryDx=0;entryDy=0;exitX=0.429;exitY=0;exitDx=0;exitDy=0;exitPerimeter=0;" parent="1" source="bw-IX-_6H2uLO_dws2v9-1" target="1MxPp7PBHnicv2gRr7QU-20" edge="1">
          <mxGeometry width="50" height="50" relative="1" as="geometry">
            <mxPoint x="-170" y="150" as="sourcePoint" />
            <mxPoint x="98" y="10" as="targetPoint" />
          </mxGeometry>
        </mxCell>
        <mxCell id="1MxPp7PBHnicv2gRr7QU-24" value="0,N" style="text;html=1;strokeColor=none;fillColor=none;align=center;verticalAlign=middle;whiteSpace=wrap;rounded=0;" parent="1" vertex="1">
          <mxGeometry x="-100" y="-180" width="60" height="30" as="geometry" />
        </mxCell>
        <mxCell id="1MxPp7PBHnicv2gRr7QU-25" value="0,N" style="text;html=1;strokeColor=none;fillColor=none;align=center;verticalAlign=middle;whiteSpace=wrap;rounded=0;" parent="1" vertex="1">
          <mxGeometry x="-180" y="-140" width="60" height="30" as="geometry" />
        </mxCell>
        <mxCell id="1MxPp7PBHnicv2gRr7QU-26" value="1,1" style="text;html=1;strokeColor=none;fillColor=none;align=center;verticalAlign=middle;whiteSpace=wrap;rounded=0;" parent="1" vertex="1">
          <mxGeometry x="340" y="-180" width="60" height="30" as="geometry" />
        </mxCell>
        <mxCell id="1MxPp7PBHnicv2gRr7QU-27" value="1,1" style="text;html=1;strokeColor=none;fillColor=none;align=center;verticalAlign=middle;whiteSpace=wrap;rounded=0;" parent="1" vertex="1">
          <mxGeometry x="-100" y="160" width="60" height="30" as="geometry" />
        </mxCell>
        <mxCell id="1MxPp7PBHnicv2gRr7QU-31" value="Genre" style="swimlane;fontStyle=0;childLayout=stackLayout;horizontal=1;startSize=30;horizontalStack=0;resizeParent=1;resizeParentMax=0;resizeLast=0;collapsible=1;marginBottom=0;whiteSpace=wrap;html=1;" parent="1" vertex="1">
          <mxGeometry x="220" y="-470" width="140" height="60" as="geometry" />
        </mxCell>
        <mxCell id="1MxPp7PBHnicv2gRr7QU-32" value="name" style="text;strokeColor=none;fillColor=none;align=left;verticalAlign=middle;spacingLeft=4;spacingRight=4;overflow=hidden;points=[[0,0.5],[1,0.5]];portConstraint=eastwest;rotatable=0;whiteSpace=wrap;html=1;" parent="1MxPp7PBHnicv2gRr7QU-31" vertex="1">
          <mxGeometry y="30" width="140" height="30" as="geometry" />
        </mxCell>
        <mxCell id="1MxPp7PBHnicv2gRr7QU-35" value="Appartenir" style="ellipse;whiteSpace=wrap;html=1;align=center;" parent="1" vertex="1">
          <mxGeometry x="414" y="-460" width="100" height="40" as="geometry" />
        </mxCell>
        <mxCell id="1MxPp7PBHnicv2gRr7QU-36" value="" style="endArrow=none;html=1;rounded=0;entryX=0;entryY=0.5;entryDx=0;entryDy=0;" parent="1" target="1MxPp7PBHnicv2gRr7QU-35" edge="1">
          <mxGeometry width="50" height="50" relative="1" as="geometry">
            <mxPoint x="360" y="-440" as="sourcePoint" />
            <mxPoint x="380" y="-530" as="targetPoint" />
          </mxGeometry>
        </mxCell>
        <mxCell id="1MxPp7PBHnicv2gRr7QU-37" value="" style="endArrow=none;html=1;rounded=0;entryX=0.5;entryY=1;entryDx=0;entryDy=0;exitX=0.55;exitY=0.004;exitDx=0;exitDy=0;exitPerimeter=0;" parent="1" target="1MxPp7PBHnicv2gRr7QU-35" edge="1" source="Tn6UdyqkFmI2WBixfoAO-17">
          <mxGeometry width="50" height="50" relative="1" as="geometry">
            <mxPoint x="470" y="-220" as="sourcePoint" />
            <mxPoint x="510" y="-420" as="targetPoint" />
          </mxGeometry>
        </mxCell>
        <mxCell id="1MxPp7PBHnicv2gRr7QU-38" value="0,N" style="text;html=1;strokeColor=none;fillColor=none;align=center;verticalAlign=middle;whiteSpace=wrap;rounded=0;" parent="1" vertex="1">
          <mxGeometry x="350" y="-440" width="60" height="30" as="geometry" />
        </mxCell>
        <mxCell id="1MxPp7PBHnicv2gRr7QU-39" value="1,N" style="text;html=1;strokeColor=none;fillColor=none;align=center;verticalAlign=middle;whiteSpace=wrap;rounded=0;" parent="1" vertex="1">
          <mxGeometry x="420" y="-250" width="60" height="30" as="geometry" />
        </mxCell>
        <mxCell id="1MxPp7PBHnicv2gRr7QU-40" value="genre_artist" style="swimlane;fontStyle=0;childLayout=stackLayout;horizontal=1;startSize=30;horizontalStack=0;resizeParent=1;resizeParentMax=0;resizeLast=0;collapsible=1;marginBottom=0;whiteSpace=wrap;html=1;" parent="1" vertex="1">
          <mxGeometry x="500" y="-570" width="140" height="90" as="geometry" />
        </mxCell>
        <mxCell id="1MxPp7PBHnicv2gRr7QU-41" value="genre_id" style="text;strokeColor=none;fillColor=none;align=left;verticalAlign=middle;spacingLeft=4;spacingRight=4;overflow=hidden;points=[[0,0.5],[1,0.5]];portConstraint=eastwest;rotatable=0;whiteSpace=wrap;html=1;" parent="1MxPp7PBHnicv2gRr7QU-40" vertex="1">
          <mxGeometry y="30" width="140" height="30" as="geometry" />
        </mxCell>
        <mxCell id="1MxPp7PBHnicv2gRr7QU-42" value="artist_id" style="text;strokeColor=none;fillColor=none;align=left;verticalAlign=middle;spacingLeft=4;spacingRight=4;overflow=hidden;points=[[0,0.5],[1,0.5]];portConstraint=eastwest;rotatable=0;whiteSpace=wrap;html=1;" parent="1MxPp7PBHnicv2gRr7QU-40" vertex="1">
          <mxGeometry y="60" width="140" height="30" as="geometry" />
        </mxCell>
        <mxCell id="1MxPp7PBHnicv2gRr7QU-44" value="Table pivot&lt;br&gt;" style="shape=callout;whiteSpace=wrap;html=1;perimeter=calloutPerimeter;" parent="1" vertex="1">
          <mxGeometry x="580" y="-640" width="90" height="60" as="geometry" />
        </mxCell>
        <mxCell id="1MxPp7PBHnicv2gRr7QU-45" value="" style="endArrow=none;dashed=1;html=1;dashPattern=1 3;strokeWidth=2;rounded=0;entryX=0;entryY=0.667;entryDx=0;entryDy=0;entryPerimeter=0;" parent="1" target="1MxPp7PBHnicv2gRr7QU-41" edge="1">
          <mxGeometry width="50" height="50" relative="1" as="geometry">
            <mxPoint x="280" y="-520" as="sourcePoint" />
            <mxPoint x="390" y="-520" as="targetPoint" />
          </mxGeometry>
        </mxCell>
        <mxCell id="1MxPp7PBHnicv2gRr7QU-46" value="" style="endArrow=none;dashed=1;html=1;dashPattern=1 3;strokeWidth=2;rounded=0;entryX=0.5;entryY=1.033;entryDx=0;entryDy=0;entryPerimeter=0;" parent="1" target="1MxPp7PBHnicv2gRr7QU-42" edge="1">
          <mxGeometry width="50" height="50" relative="1" as="geometry">
            <mxPoint x="570" y="-180" as="sourcePoint" />
            <mxPoint x="690" y="-412.5" as="targetPoint" />
          </mxGeometry>
        </mxCell>
        <mxCell id="1MxPp7PBHnicv2gRr7QU-47" value="" style="endArrow=none;dashed=1;html=1;dashPattern=1 3;strokeWidth=2;rounded=0;" parent="1" edge="1">
          <mxGeometry width="50" height="50" relative="1" as="geometry">
            <mxPoint x="530" y="-181" as="sourcePoint" />
            <mxPoint x="570" y="-181" as="targetPoint" />
          </mxGeometry>
        </mxCell>
        <mxCell id="1MxPp7PBHnicv2gRr7QU-48" value="" style="endArrow=none;dashed=1;html=1;dashPattern=1 3;strokeWidth=2;rounded=0;" parent="1" edge="1">
          <mxGeometry width="50" height="50" relative="1" as="geometry">
            <mxPoint x="280" y="-470" as="sourcePoint" />
            <mxPoint x="280" y="-520" as="targetPoint" />
          </mxGeometry>
        </mxCell>
        <mxCell id="1MxPp7PBHnicv2gRr7QU-49" value="" style="endArrow=none;dashed=1;html=1;dashPattern=1 3;strokeWidth=2;rounded=0;" parent="1" edge="1">
          <mxGeometry width="50" height="50" relative="1" as="geometry">
            <mxPoint x="640" y="360" as="sourcePoint" />
            <mxPoint x="640" y="400" as="targetPoint" />
          </mxGeometry>
        </mxCell>
        <mxCell id="1MxPp7PBHnicv2gRr7QU-50" value="" style="endArrow=none;dashed=1;html=1;dashPattern=1 3;strokeWidth=2;rounded=0;entryX=0.214;entryY=1.1;entryDx=0;entryDy=0;entryPerimeter=0;" parent="1" target="bw-IX-_6H2uLO_dws2v9-40" edge="1">
          <mxGeometry width="50" height="50" relative="1" as="geometry">
            <mxPoint x="640" y="549.5" as="sourcePoint" />
            <mxPoint x="750" y="549.5" as="targetPoint" />
          </mxGeometry>
        </mxCell>
        <mxCell id="1MxPp7PBHnicv2gRr7QU-51" value="User" style="swimlane;fontStyle=0;childLayout=stackLayout;horizontal=1;startSize=26;horizontalStack=0;resizeParent=1;resizeParentMax=0;resizeLast=0;collapsible=1;marginBottom=0;align=center;fontSize=14;" parent="1" vertex="1">
          <mxGeometry x="160" width="160" height="296" as="geometry" />
        </mxCell>
        <mxCell id="1MxPp7PBHnicv2gRr7QU-52" value="email" style="text;strokeColor=none;fillColor=none;spacingLeft=4;spacingRight=4;overflow=hidden;rotatable=0;points=[[0,0.5],[1,0.5]];portConstraint=eastwest;fontSize=12;whiteSpace=wrap;html=1;" parent="1MxPp7PBHnicv2gRr7QU-51" vertex="1">
          <mxGeometry y="26" width="160" height="30" as="geometry" />
        </mxCell>
        <mxCell id="1MxPp7PBHnicv2gRr7QU-53" value="password" style="text;strokeColor=none;fillColor=none;spacingLeft=4;spacingRight=4;overflow=hidden;rotatable=0;points=[[0,0.5],[1,0.5]];portConstraint=eastwest;fontSize=12;whiteSpace=wrap;html=1;" parent="1MxPp7PBHnicv2gRr7QU-51" vertex="1">
          <mxGeometry y="56" width="160" height="30" as="geometry" />
        </mxCell>
        <mxCell id="unt-5pMyE67pVbtMl0ob-1" value="phone_number" style="text;strokeColor=none;fillColor=none;spacingLeft=4;spacingRight=4;overflow=hidden;rotatable=0;points=[[0,0.5],[1,0.5]];portConstraint=eastwest;fontSize=12;whiteSpace=wrap;html=1;" vertex="1" parent="1MxPp7PBHnicv2gRr7QU-51">
          <mxGeometry y="86" width="160" height="30" as="geometry" />
        </mxCell>
        <mxCell id="unt-5pMyE67pVbtMl0ob-2" value="picture" style="text;strokeColor=none;fillColor=none;spacingLeft=4;spacingRight=4;overflow=hidden;rotatable=0;points=[[0,0.5],[1,0.5]];portConstraint=eastwest;fontSize=12;whiteSpace=wrap;html=1;" vertex="1" parent="1MxPp7PBHnicv2gRr7QU-51">
          <mxGeometry y="116" width="160" height="30" as="geometry" />
        </mxCell>
        <mxCell id="unt-5pMyE67pVbtMl0ob-3" value="firstname" style="text;strokeColor=none;fillColor=none;spacingLeft=4;spacingRight=4;overflow=hidden;rotatable=0;points=[[0,0.5],[1,0.5]];portConstraint=eastwest;fontSize=12;whiteSpace=wrap;html=1;" vertex="1" parent="1MxPp7PBHnicv2gRr7QU-51">
          <mxGeometry y="146" width="160" height="30" as="geometry" />
        </mxCell>
        <mxCell id="unt-5pMyE67pVbtMl0ob-4" value="lastname" style="text;strokeColor=none;fillColor=none;spacingLeft=4;spacingRight=4;overflow=hidden;rotatable=0;points=[[0,0.5],[1,0.5]];portConstraint=eastwest;fontSize=12;whiteSpace=wrap;html=1;" vertex="1" parent="1MxPp7PBHnicv2gRr7QU-51">
          <mxGeometry y="176" width="160" height="30" as="geometry" />
        </mxCell>
        <mxCell id="unt-5pMyE67pVbtMl0ob-6" value="updated_at" style="text;strokeColor=none;fillColor=none;spacingLeft=4;spacingRight=4;overflow=hidden;rotatable=0;points=[[0,0.5],[1,0.5]];portConstraint=eastwest;fontSize=12;whiteSpace=wrap;html=1;" vertex="1" parent="1MxPp7PBHnicv2gRr7QU-51">
          <mxGeometry y="206" width="160" height="30" as="geometry" />
        </mxCell>
        <mxCell id="unt-5pMyE67pVbtMl0ob-7" value="birthday" style="text;strokeColor=none;fillColor=none;spacingLeft=4;spacingRight=4;overflow=hidden;rotatable=0;points=[[0,0.5],[1,0.5]];portConstraint=eastwest;fontSize=12;whiteSpace=wrap;html=1;" vertex="1" parent="1MxPp7PBHnicv2gRr7QU-51">
          <mxGeometry y="236" width="160" height="30" as="geometry" />
        </mxCell>
        <mxCell id="unt-5pMyE67pVbtMl0ob-5" value="created_at" style="text;strokeColor=none;fillColor=none;spacingLeft=4;spacingRight=4;overflow=hidden;rotatable=0;points=[[0,0.5],[1,0.5]];portConstraint=eastwest;fontSize=12;whiteSpace=wrap;html=1;" vertex="1" parent="1MxPp7PBHnicv2gRr7QU-51">
          <mxGeometry y="266" width="160" height="30" as="geometry" />
        </mxCell>
        <mxCell id="1MxPp7PBHnicv2gRr7QU-55" value="Etre" style="ellipse;whiteSpace=wrap;html=1;align=center;" parent="1" vertex="1">
          <mxGeometry x="-30" y="140" width="100" height="40" as="geometry" />
        </mxCell>
        <mxCell id="1MxPp7PBHnicv2gRr7QU-56" value="Etre" style="ellipse;whiteSpace=wrap;html=1;align=center;" parent="1" vertex="1">
          <mxGeometry x="210" y="-80" width="100" height="40" as="geometry" />
        </mxCell>
        <mxCell id="1MxPp7PBHnicv2gRr7QU-57" value="" style="endArrow=none;html=1;rounded=0;entryX=0.5;entryY=1;entryDx=0;entryDy=0;exitX=0.5;exitY=0;exitDx=0;exitDy=0;exitPerimeter=0;" parent="1" target="1MxPp7PBHnicv2gRr7QU-56" edge="1">
          <mxGeometry width="50" height="50" relative="1" as="geometry">
            <mxPoint x="260" as="sourcePoint" />
            <mxPoint x="270" y="-100" as="targetPoint" />
          </mxGeometry>
        </mxCell>
        <mxCell id="1MxPp7PBHnicv2gRr7QU-58" value="" style="endArrow=none;html=1;rounded=0;entryX=0;entryY=0.5;entryDx=0;entryDy=0;" parent="1" target="1MxPp7PBHnicv2gRr7QU-55" edge="1">
          <mxGeometry width="50" height="50" relative="1" as="geometry">
            <mxPoint x="-90" y="160" as="sourcePoint" />
            <mxPoint x="70" y="140" as="targetPoint" />
          </mxGeometry>
        </mxCell>
        <mxCell id="1MxPp7PBHnicv2gRr7QU-59" value="" style="endArrow=none;html=1;rounded=0;entryX=0;entryY=0.3;entryDx=0;entryDy=0;exitX=0.5;exitY=0;exitDx=0;exitDy=0;exitPerimeter=0;entryPerimeter=0;" parent="1" edge="1">
          <mxGeometry width="50" height="50" relative="1" as="geometry">
            <mxPoint x="309" y="-60" as="sourcePoint" />
            <mxPoint x="390" y="-61" as="targetPoint" />
          </mxGeometry>
        </mxCell>
        <mxCell id="1MxPp7PBHnicv2gRr7QU-61" value="" style="endArrow=none;html=1;rounded=0;exitX=0.5;exitY=0;exitDx=0;exitDy=0;entryX=0;entryY=0.5;entryDx=0;entryDy=0;" parent="1" target="unt-5pMyE67pVbtMl0ob-3" edge="1">
          <mxGeometry width="50" height="50" relative="1" as="geometry">
            <mxPoint x="70" y="160" as="sourcePoint" />
            <mxPoint x="70" y="80" as="targetPoint" />
          </mxGeometry>
        </mxCell>
        <mxCell id="1MxPp7PBHnicv2gRr7QU-63" value="0,N" style="text;html=1;strokeColor=none;fillColor=none;align=center;verticalAlign=middle;whiteSpace=wrap;rounded=0;" parent="1" vertex="1">
          <mxGeometry x="250" y="-30" width="60" height="30" as="geometry" />
        </mxCell>
        <mxCell id="1MxPp7PBHnicv2gRr7QU-64" value="1,1" style="text;html=1;strokeColor=none;fillColor=none;align=center;verticalAlign=middle;whiteSpace=wrap;rounded=0;" parent="1" vertex="1">
          <mxGeometry x="340" y="-60" width="60" height="30" as="geometry" />
        </mxCell>
        <mxCell id="1MxPp7PBHnicv2gRr7QU-65" value="0,N" style="text;html=1;strokeColor=none;fillColor=none;align=center;verticalAlign=middle;whiteSpace=wrap;rounded=0;" parent="1" vertex="1">
          <mxGeometry x="110" y="160" width="60" height="30" as="geometry" />
        </mxCell>
        <mxCell id="1MxPp7PBHnicv2gRr7QU-70" value="" style="endArrow=none;html=1;rounded=0;entryX=0.5;entryY=1;entryDx=0;entryDy=0;exitX=0.5;exitY=0;exitDx=0;exitDy=0;" parent="1" source="bw-IX-_6H2uLO_dws2v9-25" target="bw-IX-_6H2uLO_dws2v9-29" edge="1">
          <mxGeometry width="50" height="50" relative="1" as="geometry">
            <mxPoint x="455" y="520" as="sourcePoint" />
            <mxPoint x="505" y="470" as="targetPoint" />
          </mxGeometry>
        </mxCell>
        <mxCell id="1MxPp7PBHnicv2gRr7QU-82" value="" style="endArrow=none;html=1;rounded=0;" parent="1" edge="1">
          <mxGeometry width="50" height="50" relative="1" as="geometry">
            <mxPoint x="-120" y="320" as="sourcePoint" />
            <mxPoint x="-120" y="320" as="targetPoint" />
          </mxGeometry>
        </mxCell>
        <mxCell id="1MxPp7PBHnicv2gRr7QU-84" value="" style="endArrow=none;html=1;rounded=0;" parent="1" edge="1">
          <mxGeometry width="50" height="50" relative="1" as="geometry">
            <mxPoint x="-120" y="-240" as="sourcePoint" />
            <mxPoint x="-120" y="-239.99999999999977" as="targetPoint" />
          </mxGeometry>
        </mxCell>
        <mxCell id="1MxPp7PBHnicv2gRr7QU-106" value="favorite ????" style="swimlane;fontStyle=0;childLayout=stackLayout;horizontal=1;startSize=30;horizontalStack=0;resizeParent=1;resizeParentMax=0;resizeLast=0;collapsible=1;marginBottom=0;whiteSpace=wrap;html=1;" parent="1" vertex="1">
          <mxGeometry x="-90" y="-80" width="140" height="60" as="geometry" />
        </mxCell>
        <mxCell id="1MxPp7PBHnicv2gRr7QU-110" value="" style="endArrow=none;html=1;rounded=0;entryX=0;entryY=0.5;entryDx=0;entryDy=0;" parent="1" edge="1" target="1MxPp7PBHnicv2gRr7QU-52">
          <mxGeometry width="50" height="50" relative="1" as="geometry">
            <mxPoint x="-20" y="41" as="sourcePoint" />
            <mxPoint x="80" y="-40" as="targetPoint" />
          </mxGeometry>
        </mxCell>
        <mxCell id="1MxPp7PBHnicv2gRr7QU-115" value="1,1" style="text;html=1;strokeColor=none;fillColor=none;align=center;verticalAlign=middle;whiteSpace=wrap;rounded=0;" parent="1" vertex="1">
          <mxGeometry x="-180" y="130" width="60" height="30" as="geometry" />
        </mxCell>
        <mxCell id="1MxPp7PBHnicv2gRr7QU-68" value="" style="endArrow=none;html=1;rounded=0;entryX=0.5;entryY=0.967;entryDx=0;entryDy=0;entryPerimeter=0;" parent="1" edge="1">
          <mxGeometry width="50" height="50" relative="1" as="geometry">
            <mxPoint x="460" y="440" as="sourcePoint" />
            <mxPoint x="459.5" y="405.0000000000002" as="targetPoint" />
          </mxGeometry>
        </mxCell>
        <mxCell id="unt-5pMyE67pVbtMl0ob-13" value="" style="endArrow=none;html=1;rounded=0;" edge="1" parent="1">
          <mxGeometry width="50" height="50" relative="1" as="geometry">
            <mxPoint x="530" y="570" as="sourcePoint" />
            <mxPoint x="800" y="570" as="targetPoint" />
          </mxGeometry>
        </mxCell>
        <mxCell id="unt-5pMyE67pVbtMl0ob-14" value="" style="endArrow=none;html=1;rounded=0;" edge="1" parent="1" source="unt-5pMyE67pVbtMl0ob-16">
          <mxGeometry width="50" height="50" relative="1" as="geometry">
            <mxPoint x="800" y="570" as="sourcePoint" />
            <mxPoint x="800" y="-82" as="targetPoint" />
          </mxGeometry>
        </mxCell>
        <mxCell id="unt-5pMyE67pVbtMl0ob-15" value="" style="endArrow=none;html=1;rounded=0;" edge="1" parent="1">
          <mxGeometry width="50" height="50" relative="1" as="geometry">
            <mxPoint x="530" y="-80" as="sourcePoint" />
            <mxPoint x="800" y="-80" as="targetPoint" />
          </mxGeometry>
        </mxCell>
        <mxCell id="unt-5pMyE67pVbtMl0ob-17" value="" style="endArrow=none;html=1;rounded=0;" edge="1" parent="1" target="unt-5pMyE67pVbtMl0ob-16">
          <mxGeometry width="50" height="50" relative="1" as="geometry">
            <mxPoint x="800" y="570" as="sourcePoint" />
            <mxPoint x="800" y="-82" as="targetPoint" />
          </mxGeometry>
        </mxCell>
        <mxCell id="unt-5pMyE67pVbtMl0ob-16" value="Avoir" style="ellipse;whiteSpace=wrap;html=1;align=center;" vertex="1" parent="1">
          <mxGeometry x="750" y="180" width="100" height="40" as="geometry" />
        </mxCell>
        <mxCell id="unt-5pMyE67pVbtMl0ob-19" value="1,1" style="text;html=1;strokeColor=none;fillColor=none;align=center;verticalAlign=middle;whiteSpace=wrap;rounded=0;" vertex="1" parent="1">
          <mxGeometry x="450" y="10" width="60" height="30" as="geometry" />
        </mxCell>
        <mxCell id="unt-5pMyE67pVbtMl0ob-20" value="" style="endArrow=none;html=1;rounded=0;entryX=0.5;entryY=1;entryDx=0;entryDy=0;" edge="1" parent="1" target="1MxPp7PBHnicv2gRr7QU-106">
          <mxGeometry width="50" height="50" relative="1" as="geometry">
            <mxPoint x="-20" y="40" as="sourcePoint" />
            <mxPoint x="30" y="-10" as="targetPoint" />
          </mxGeometry>
        </mxCell>
        <mxCell id="unt-5pMyE67pVbtMl0ob-22" value="artist_tag" style="swimlane;fontStyle=0;childLayout=stackLayout;horizontal=1;startSize=30;horizontalStack=0;resizeParent=1;resizeParentMax=0;resizeLast=0;collapsible=1;marginBottom=0;whiteSpace=wrap;html=1;" vertex="1" parent="1">
          <mxGeometry x="860" y="15" width="140" height="90" as="geometry" />
        </mxCell>
        <mxCell id="unt-5pMyE67pVbtMl0ob-23" value="tag_id" style="text;strokeColor=none;fillColor=none;align=left;verticalAlign=middle;spacingLeft=4;spacingRight=4;overflow=hidden;points=[[0,0.5],[1,0.5]];portConstraint=eastwest;rotatable=0;whiteSpace=wrap;html=1;" vertex="1" parent="unt-5pMyE67pVbtMl0ob-22">
          <mxGeometry y="30" width="140" height="30" as="geometry" />
        </mxCell>
        <mxCell id="unt-5pMyE67pVbtMl0ob-24" value="artist_id" style="text;strokeColor=none;fillColor=none;align=left;verticalAlign=middle;spacingLeft=4;spacingRight=4;overflow=hidden;points=[[0,0.5],[1,0.5]];portConstraint=eastwest;rotatable=0;whiteSpace=wrap;html=1;" vertex="1" parent="unt-5pMyE67pVbtMl0ob-22">
          <mxGeometry y="60" width="140" height="30" as="geometry" />
        </mxCell>
        <mxCell id="unt-5pMyE67pVbtMl0ob-26" value="" style="endArrow=none;dashed=1;html=1;dashPattern=1 3;strokeWidth=2;rounded=0;" edge="1" parent="1">
          <mxGeometry width="50" height="50" relative="1" as="geometry">
            <mxPoint x="464" y="640" as="sourcePoint" />
            <mxPoint x="464" y="580" as="targetPoint" />
          </mxGeometry>
        </mxCell>
        <mxCell id="unt-5pMyE67pVbtMl0ob-27" value="" style="endArrow=none;dashed=1;html=1;dashPattern=1 3;strokeWidth=2;rounded=0;" edge="1" parent="1">
          <mxGeometry width="50" height="50" relative="1" as="geometry">
            <mxPoint x="530" y="-160" as="sourcePoint" />
            <mxPoint x="920" y="-160" as="targetPoint" />
          </mxGeometry>
        </mxCell>
        <mxCell id="unt-5pMyE67pVbtMl0ob-28" value="" style="endArrow=none;dashed=1;html=1;dashPattern=1 3;strokeWidth=2;rounded=0;" edge="1" parent="1">
          <mxGeometry width="50" height="50" relative="1" as="geometry">
            <mxPoint x="464" y="640" as="sourcePoint" />
            <mxPoint x="920" y="640" as="targetPoint" />
          </mxGeometry>
        </mxCell>
        <mxCell id="unt-5pMyE67pVbtMl0ob-29" value="" style="endArrow=none;dashed=1;html=1;dashPattern=1 3;strokeWidth=2;rounded=0;entryX=0.436;entryY=1.1;entryDx=0;entryDy=0;entryPerimeter=0;" edge="1" parent="1" target="unt-5pMyE67pVbtMl0ob-24">
          <mxGeometry width="50" height="50" relative="1" as="geometry">
            <mxPoint x="920" y="635" as="sourcePoint" />
            <mxPoint x="970" y="585" as="targetPoint" />
          </mxGeometry>
        </mxCell>
        <mxCell id="unt-5pMyE67pVbtMl0ob-30" value="" style="endArrow=none;dashed=1;html=1;dashPattern=1 3;strokeWidth=2;rounded=0;" edge="1" parent="1">
          <mxGeometry width="50" height="50" relative="1" as="geometry">
            <mxPoint x="920" y="10" as="sourcePoint" />
            <mxPoint x="920" y="-160" as="targetPoint" />
          </mxGeometry>
        </mxCell>
        <mxCell id="unt-5pMyE67pVbtMl0ob-31" value="table pivot" style="shape=callout;whiteSpace=wrap;html=1;perimeter=calloutPerimeter;" vertex="1" parent="1">
          <mxGeometry x="950" y="-50" width="80" height="60" as="geometry" />
        </mxCell>
        <mxCell id="unt-5pMyE67pVbtMl0ob-32" value="0,N" style="text;html=1;strokeColor=none;fillColor=none;align=center;verticalAlign=middle;whiteSpace=wrap;rounded=0;" vertex="1" parent="1">
          <mxGeometry x="520" y="-80" width="60" height="30" as="geometry" />
        </mxCell>
        <mxCell id="unt-5pMyE67pVbtMl0ob-33" value="0,N" style="text;html=1;strokeColor=none;fillColor=none;align=center;verticalAlign=middle;whiteSpace=wrap;rounded=0;" vertex="1" parent="1">
          <mxGeometry x="520" y="570" width="60" height="30" as="geometry" />
        </mxCell>
      </root>
    </mxGraphModel>
  </diagram>
</mxfile>
